<svg height="512pt" viewBox="0 0 511 512" width="512pt" xmlns="http://www.w3.org/2000/svg"><path d="m395.640625 325.730469-208.871094-208.871094c-3.101562-3.097656-7.359375-4.667969-11.671875-4.347656-.578125.027343-1.160156.109375-1.726562.21875-4.882813.929687-8.980469 4.199219-10.960938 8.757812l-17.3125 39.8125-50.339844 115.777344-30 69-63.019531 144.941406c-2.449219 5.652344-1.199219 12.230469 3.152344 16.589844 2.878906 2.871094 6.707031 4.390625 10.609375 4.390625 2.019531 0 4.050781-.410156 5.980469-1.238281l43.277343-18.820313 30-13.042968 50.339844-21.886719 30-13.042969 50.332032-21.890625 30-13.039063 50.339843-21.890624 30-13.039063 55.238281-24.019531c4.5625-1.980469 7.832032-6.078125 8.761719-10.960938.929688-4.867187-.621093-9.890625-4.128906-13.398437zm0 0" fill="#fcf355"/><path d="m305.769531 235.859375-105.503906-105.503906v302.667969l25.164063-10.941407 30-13.042969 50.339843-21.886718 30-13.042969 55.238281-24.019531c4.5625-1.980469 7.832032-6.078125 8.761719-10.957032.929688-4.871093-.621093-9.890624-4.128906-13.402343zm0 0" fill="#ffd500"/><path d="m224.367188 94.265625c8.28125 0 15-6.714844 15-15v-8.046875c0-2.394531.96875-4.734375 2.660156-6.425781 1.6875-1.6875 4.03125-2.660157 6.4375-2.660157 10.457031 0 20.277344-4.070312 27.636718-11.441406 7.394532-7.378906 11.464844-17.203125 11.464844-27.65625v-8.035156c0-8.285156-6.71875-15-15-15-8.285156 0-15 6.714844-15 15v8.035156c0 2.429688-.945312 4.710938-2.679687 6.441406-1.710938 1.714844-3.992188 2.65625-6.4375 2.65625-10.289063 0-20.363281 4.171876-27.636719 11.449219-7.273438 7.273438-11.445312 17.347657-11.445312 27.636719v8.046875c0 8.285156 6.714843 15 15 15zm0 0" fill="#00d0b1"/><path d="m497.5 0c-8.285156 0-15 6.714844-15 15v24.117188c0 2.390624-.96875 4.730468-2.660156 6.421874-1.691406 1.691407-4.03125 2.660157-6.457032 2.660157-10.289062 0-20.363281 4.171875-27.636718 11.445312-7.273438 7.273438-11.445313 17.347657-11.445313 27.640625v24.113282c0 8.285156 6.714844 15 15 15 8.28125 0 15-6.714844 15-15v-24.113282c0-2.394531.96875-4.734375 2.660157-6.425781 1.6875-1.6875 4.03125-2.660156 6.453124-2.660156 10.289063 0 20.363282-4.171875 27.636719-11.445313 7.277344-7.273437 11.449219-17.347656 11.449219-27.636718v-24.117188c0-8.285156-6.714844-15-15-15zm0 0" fill="#412ccb"/><path d="m497.5 176.734375h-24.117188c-10.289062 0-20.363281 4.171875-27.636718 11.445313-7.273438 7.273437-11.445313 17.347656-11.445313 27.652343 0 2.433594-.945312 4.710938-2.679687 6.441407-1.710938 1.714843-3.992188 2.660156-6.421875 2.660156h-24.101563c-8.285156 0-15 6.714844-15 15s6.714844 15 15 15h24.101563c10.453125 0 20.273437-4.070313 27.636719-11.445313 7.390624-7.378906 11.464843-17.199219 11.464843-27.671875 0-2.390625.96875-4.730468 2.660157-6.421875 1.6875-1.691406 4.03125-2.660156 6.421874-2.660156h24.117188c8.285156 0 15-6.714844 15-15s-6.714844-15-15-15zm0 0" fill="#ff4ef5"/><path d="m359.609375 92.683594 32.132813-16.066406c7.410156-3.707032 10.410156-12.714844 6.707031-20.125-3.703125-7.410157-12.714844-10.414063-20.125-6.707032l-32.132813 16.066406c-7.410156 3.703126-10.414062 12.714844-6.707031 20.125 3.714844 7.433594 12.738281 10.398438 20.125 6.707032zm0 0" fill="#ffd500"/><path d="m458.65625 467.511719-32.132812 16.066406c-7.410157 3.707031-10.410157 12.71875-6.707032 20.125 2.628906 5.257813 7.925782 8.296875 13.429688 8.296875 2.253906 0 4.542968-.511719 6.695312-1.585938l32.132813-16.066406c7.410156-3.707031 10.414062-12.714844 6.707031-20.125-3.703125-7.410156-12.71875-10.414062-20.125-6.710937zm0 0" fill="#412ccb"/><path d="m297.992188 173.015625 32.132812 16.066406c7.390625 3.695313 16.410156.722657 20.125-6.707031 3.703125-7.410156.699219-16.417969-6.710938-20.125l-32.132812-16.066406c-7.40625-3.703125-16.417969-.703125-20.121094 6.707031-3.707031 7.410156-.703125 16.421875 6.707032 20.125zm0 0" fill="#ff4ef5"/><path d="m38.273438 148.917969 32.132812-16.066407c7.410156-3.707031 10.414062-12.714843 6.710938-20.125-3.707032-7.410156-12.71875-10.414062-20.125-6.707031l-32.132813 16.066407c-7.410156 3.703124-10.414063 12.714843-6.710937 20.125 3.71875 7.429687 12.738281 10.398437 20.125 6.707031zm0 0" fill="#fcf355"/><path d="m105.191406 44.484375 32.132813 16.066406c7.390625 3.695313 16.410156.71875 20.125-6.710937 3.707031-7.410156.703125-16.417969-6.707031-20.125l-32.132813-16.066406c-7.410156-3.703126-16.421875-.699219-20.125 6.710937-3.707031 7.40625-.703125 16.417969 6.707031 20.125zm0 0" fill="#ffa4ff"/><path d="m297.992188 451.449219-32.132813 16.066406c-7.410156 3.707031-10.414063 12.714844-6.710937 20.125 3.71875 7.433594 12.738281 10.402344 20.125 6.707031l32.132812-16.066406c7.410156-3.703125 10.414062-12.714844 6.710938-20.125-3.707032-7.40625-12.714844-10.410156-20.125-6.707031zm0 0" fill="#ffd500"/><path d="m464.300781 400.601562v-32.132812c0-8.285156-6.71875-15-15-15-8.285156 0-15 6.714844-15 15v32.132812c0 8.28125 6.714844 15 15 15 8.28125 0 15-6.71875 15-15zm0 0" fill="#00d0b1"/><path d="m31.566406 303.132812c8.285156 0 15-6.714843 15-15v-32.132812c0-8.285156-6.714844-15-15-15s-15 6.714844-15 15v32.132812c0 8.285157 6.714844 15 15 15zm0 0" fill="#6a73f1"/><path d="m255.429688 185.519531v223.519531l-30 13.039063v-266.558594zm0 0" fill="#ff4ef5"/><path d="m335.769531 265.859375v108.25l-30 13.039063v-151.289063zm0 0" fill="#ff4ef5"/><g fill="#ffa4ff"><path d="m94.757812 277.078125v201.820313l-30 13.042968v-145.863281zm0 0"/><path d="m175.097656 112.511719v331.457031l-30 13.042969v-295.710938l17.3125-39.8125c1.980469-4.558593 6.078125-7.828125 10.960938-8.757812.566406-.109375 1.148437-.191407 1.726562-.21875zm0 0"/></g></svg>