<svg height="512pt" viewBox="-96 0 512 512" width="512pt" xmlns="http://www.w3.org/2000/svg"><path d="m91.449219 94.265625h31.949219l-22.59375 22.59375c-5.855469 5.859375-5.855469 15.355469 0 21.214844 5.871093 5.867187 15.367187 5.847656 21.214843 0l37.59375-37.59375 37.59375 37.59375c5.859375 5.859375 15.355469 5.855469 21.214844 0 5.855469-5.859375 5.855469-15.355469 0-21.214844l-22.59375-22.59375h31.949219c8.285156 0 15-6.714844 15-15 0-8.28125-6.714844-15-15-15h-31.949219l22.589844-22.589844c5.859375-5.859375 5.859375-15.355469 0-21.214843-5.855469-5.855469-15.355469-5.859376-21.210938 0l-22.59375 22.59375v-28.054688c0-8.285156-6.714843-15-15-15-8.285156 0-15 6.714844-15 15v28.054688l-22.59375-22.59375c-5.855469-5.859376-15.355469-5.859376-21.214843 0-5.855469 5.855468-5.855469 15.355468 0 21.210937l22.59375 22.59375h-31.953126c-8.28125 0-15 6.714844-15 15s6.71875 15 15.003907 15zm0 0" fill="#6a73f1"/><path d="m242.785156 79.269531c0 8.28125-6.722656 15-15 15h-31.960937l22.597656 22.589844c5.851563 5.859375 5.851563 15.359375 0 21.210937-5.859375 5.859376-15.359375 5.859376-21.21875 0l-37.589844-37.589843v-100.480469c8.28125 0 15 6.71875 15 15v28.050781l22.589844-22.589843c5.859375-5.859376 15.359375-5.859376 21.21875 0 5.851563 5.859374 5.851563 15.359374 0 21.210937l-22.597656 22.597656h31.960937c8.277344 0 15 6.710938 15 15zm0 0" fill="#412ccb"/><path d="m318.097656 491.320312-144.601562-353.46875c-5.074219-12.398437-22.695313-12.398437-27.765625 0l-144.601563 353.46875c-4.03125 9.855469 3.226563 20.679688 13.882813 20.679688h289.203125c10.644531 0 17.917968-10.816406 13.882812-20.679688zm0 0" fill="#fcf355"/><path d="m318.09375 491.320312-52.199219-127.589843-12.3125-30.109375-29.660156-72.511719-12.320313-30.109375-38.109374-93.148438c-2.539063-6.203124-8.207032-9.300781-13.878907-9.300781v383.449219h144.601563c10.648437 0 17.917968-10.820312 13.878906-20.679688zm0 0" fill="#ffd500"/><path d="m211.601562 231-175.957031 175.949219-29.371093 71.800781 217.648437-217.640625zm41.980469 102.621094-178.390625 178.378906h42.441406l148.261719-148.269531zm0 0" fill="#00f3ce"/><path d="m253.582031 333.621094-93.96875 93.957031v42.441406l106.28125-106.289062zm-41.980469-102.621094-51.988281 51.988281v42.433594l64.308594-64.3125zm0 0" fill="#00d0b1"/></svg>