<svg height="512pt" viewBox="0 0 512 512" width="512pt" xmlns="http://www.w3.org/2000/svg"><path d="m464.867188 144.601562h-417.734376c-25.988281 0-47.132812 21.140626-47.132812 47.132813v64.265625c0 25.988281 21.144531 47.132812 47.132812 47.132812h1.066407v161.734376c0 25.988281 21.144531 47.132812 47.132812 47.132812h321.332031c25.992188 0 47.136719-21.144531 47.136719-47.132812v-161.734376h1.066407c25.988281 0 47.132812-21.144531 47.132812-47.132812v-64.265625c0-25.992187-21.144531-47.132813-47.132812-47.132813zm0 0" fill="#6a73f1"/><path d="m464.871094 144.601562h-208.871094v367.398438h160.671875c25.988281 0 47.128906-21.140625 47.128906-47.128906v-161.742188h1.070313c25.988281 0 47.128906-21.140625 47.128906-47.128906v-64.269531c0-25.992188-21.140625-47.128907-47.128906-47.128907zm0 0" fill="#412ccb"/><path d="m48.199219 303.128906h415.601562v30h-415.601562zm0 0" fill="#412ccb"/><path d="m256 303.128906h207.800781v30h-207.800781zm0 0" fill="#080d7f"/><path d="m271 87.300781c0-31.597656 25.703125-57.300781 57.300781-57.300781 31.59375 0 57.300781 25.703125 57.300781 57.300781 0 31.644531-25.601562 57.300781-57.300781 57.300781h65.890625c13.332032-15.324218 21.410156-35.351562 21.410156-57.300781 0-48.140625-39.164062-87.300781-87.300781-87.300781-30.042969 0-56.585937 15.253906-72.300781 38.421875-15.714844-23.167969-42.257812-38.421875-72.300781-38.421875-48.136719 0-87.300781 39.164062-87.300781 87.300781 0 21.925781 8.070312 41.964844 21.414062 57.300781h65.886719c-31.644531 0-57.300781-25.601562-57.300781-57.300781 0-31.597656 25.707031-57.300781 57.300781-57.300781 31.597656 0 57.300781 25.703125 57.300781 57.300781v424.699219h30zm0 0" fill="#ffd500"/><path d="m271 512v-424.699219c0-31.597656 25.703125-57.300781 57.300781-57.300781 31.59375 0 57.300781 25.703125 57.300781 57.300781 0 31.644531-25.601562 57.300781-57.300781 57.300781h65.890625c13.332032-15.324218 21.410156-35.351562 21.410156-57.300781 0-48.140625-39.164062-87.300781-87.300781-87.300781-30.042969 0-56.585937 15.253906-72.300781 38.421875v473.578125zm0 0" fill="#ffbe00"/><path d="m241 144.601562h30v158.527344h-30zm0 0" fill="#fcf355"/><path d="m256 144.601562h15v158.527344h-15zm0 0" fill="#ffd500"/><path d="m241 333.128906h30v178.871094h-30zm0 0" fill="#fcf355"/><path d="m256 333.128906h15v178.871094h-15zm0 0" fill="#ffd500"/></svg>