<svg height="512pt" viewBox="0 0 512 512" width="512pt" xmlns="http://www.w3.org/2000/svg"><path d="m384.53125 238.867188c-8.28125 0-15-6.714844-15-15v-80.332032c0-8.285156 6.71875-15 15-15 8.285156 0 15 6.714844 15 15v80.332032c0 8.285156-6.714844 15-15 15zm0 0" fill="#00d0b1"/><path d="m127.46875 238.867188c-8.285156 0-15-6.714844-15-15v-80.332032c0-8.285156 6.714844-15 15-15 8.28125 0 15 6.714844 15 15v80.332032c0 8.285156-6.71875 15-15 15zm0 0" fill="#00f3ce"/><path d="m256 238.867188c-8.285156 0-15-6.714844-15-15v-80.332032c0-8.285156 6.714844-15 15-15s15 6.714844 15 15v80.332032c0 8.285156-6.714844 15-15 15zm0 0" fill="#00f3ce"/><path d="m271 223.867188v-80.332032c0-8.285156-6.714844-15-15-15v110.332032c8.285156 0 15-6.714844 15-15zm0 0" fill="#00d0b1"/><path d="m222.398438 96.019531c18.457031 19.070313 48.570312 19.128907 67.082031 0 .113281-.113281.222656-.230469.328125-.351562 17.789062-18.746094 17.679687-48.953125-.324219-67.566407l-22.757813-23.53125c-2.828124-2.921874-6.71875-4.570312-10.78125-4.570312-4.066406 0-7.957031 1.648438-10.785156 4.570312 0 0-11.378906 11.769532-22.765625 23.53125-18.003906 18.613282-18.113281 48.820313-.328125 67.566407.109375.117187.21875.234375.332032.351562zm0 0" fill="#fcf355"/><path d="m289.480469 28.101562-22.75-23.53125c-2.820313-2.910156-6.679688-4.5507808-10.730469-4.570312v110.351562c12.121094-.011718 24.238281-4.78125 33.480469-14.332031.109375-.121093.21875-.230469.328125-.347656 17.792968-18.75 17.679687-48.953125-.328125-67.570313zm0 0" fill="#ffd500"/><path d="m243.957031 48.960938c4.183594-4.320313 8.367188-8.644532 11.984375-12.386719l11.980469 12.386719c6.984375 7.222656 6.988281 18.972656.003906 26.1875-.070312.074218-.140625.148437-.210937.21875-6.539063 6.542968-16.859375 6.695312-23.550782 0-.066406-.074219-.136718-.144532-.207031-.21875-6.988281-7.214844-6.984375-18.964844 0-26.1875zm0 0" fill="#ffa4ff"/><path d="m267.921875 75.148438c-.070313.070312-.140625.140624-.203125.222656-3.269531 3.269531-7.488281 4.9375-11.71875 4.957031v-43.699219l11.921875 12.332032c6.988281 7.21875 6.988281 18.96875 0 26.1875zm0 0" fill="#ff4ef5"/><path d="m93.925781 96.019531c18.457031 19.070313 48.570313 19.128907 67.082031 0 .113282-.113281.222657-.230469.332032-.351562 17.785156-18.746094 17.675781-48.953125-.328125-67.566407l-22.757813-23.53125c-2.828125-2.921874-6.71875-4.570312-10.78125-4.570312-4.066406 0-7.957031 1.648438-10.78125 4.570312 0 0-11.382812 11.769532-22.769531 23.53125-18.003906 18.613282-18.113281 48.820313-.328125 67.566407.109375.117187.21875.234375.332031.351562zm0 0" fill="#fcf355"/><path d="m161.007812 28.101562-22.75-23.53125c-2.820312-2.910156-6.679687-4.5507808-10.730468-4.570312v110.351562c12.121094-.011718 24.242187-4.78125 33.480468-14.332031.109376-.121093.21875-.230469.332032-.347656 17.789062-18.75 17.679687-48.953125-.332032-67.570313zm0 0" fill="#ffd500"/><path d="m115.484375 48.960938c4.183594-4.320313 8.367187-8.644532 11.984375-12.386719l11.976562 12.386719c6.988282 7.222656 6.992188 18.972656.003907 26.1875-.066407.074218-.136719.148437-.207031.21875-6.542969 6.542968-16.859376 6.695312-23.550782 0-.070312-.074219-.136718-.144532-.207031-.21875-6.988281-7.214844-6.984375-18.964844 0-26.1875zm0 0" fill="#ffa4ff"/><path d="m139.449219 75.148438c-.070313.070312-.140625.140624-.203125.222656-3.269532 3.269531-7.488282 4.9375-11.71875 4.957031v-43.699219l11.921875 12.332032c6.988281 7.21875 6.988281 18.96875 0 26.1875zm0 0" fill="#ff4ef5"/><path d="m350.992188 96.019531c18.457031 19.070313 48.570312 19.128907 67.082031 0 .113281-.113281.222656-.230469.332031-.351562 17.785156-18.746094 17.675781-48.953125-.328125-67.566407l-22.757813-23.53125c-2.828124-2.921874-6.71875-4.570312-10.78125-4.570312-4.066406 0-7.957031 1.648438-10.78125 4.570312 0 0-11.382812 11.769532-22.769531 23.53125-18.003906 18.613282-18.113281 48.820313-.328125 67.566407.109375.117187.21875.234375.332032.351562zm0 0" fill="#fcf355"/><path d="m418.074219 28.101562-22.75-23.53125c-2.820313-2.910156-6.679688-4.5507808-10.730469-4.570312v110.351562c12.121094-.011718 24.242188-4.78125 33.480469-14.332031.109375-.121093.21875-.230469.328125-.347656 17.792968-18.75 17.683594-48.953125-.328125-67.570313zm0 0" fill="#ffd500"/><path d="m372.550781 48.960938c4.183594-4.320313 8.367188-8.644532 11.984375-12.386719l11.980469 12.386719c6.988281 7.222656 6.988281 18.972656.003906 26.1875-.070312.074218-.140625.148437-.210937.21875-6.539063 6.542968-16.859375 6.695312-23.550782 0-.066406-.074219-.136718-.144532-.207031-.21875-6.988281-7.214844-6.984375-18.964844 0-26.1875zm0 0" fill="#ffa4ff"/><path d="m396.515625 75.148438c-.070313.070312-.140625.140624-.203125.222656-3.269531 3.269531-7.488281 4.9375-11.71875 4.957031v-43.699219l11.921875 12.332032c6.988281 7.21875 6.988281 18.96875 0 26.1875zm0 0" fill="#ff4ef5"/><path d="m448.800781 335.265625h-385.601562c-8.285157 0-15-6.714844-15-15v-64.265625c0-25.753906 20.804687-47.132812 47.132812-47.132812h321.335938c25.796875 0 47.132812 20.847656 47.132812 47.132812v64.265625c0 8.285156-6.714843 15-15 15zm0 0" fill="#d9e4ef"/><path d="m416.671875 208.871094h-160.730469v126.398437h192.859375c8.277344 0 15-6.71875 15-15v-64.269531c0-26.289062-21.332031-47.128906-47.128906-47.128906zm0 0" fill="#c1cedb"/><path d="m497 512h-482c-8.285156 0-15-6.714844-15-15v-144.601562c0-25.742188 20.796875-47.132813 47.132812-47.132813h417.734376c25.796874 0 47.132812 20.847656 47.132812 47.132813v144.601562c0 8.285156-6.714844 15-15 15zm0 0" fill="#ffa4ff"/><path d="m464.871094 305.269531h-208.929688v206.730469h241.058594c8.28125 0 15-6.71875 15-15v-144.601562c0-26.289063-21.339844-47.128907-47.128906-47.128907zm0 0" fill="#ff4ef5"/><path d="m464.867188 305.265625h-417.734376c-26.335937 0-47.132812 21.390625-47.132812 47.132813v68.347656l8.558594-8.566406c3.550781-3.550782 9.332031-3.550782 12.871094-.007813l14.128906 14.128906c15.242187 15.238281 40.042968 15.238281 55.300781-.011719l14.101563-14.109374c3.550781-3.550782 9.328124-3.550782 12.867187-.007813l14.121094 14.128906c15.25 15.238281 40.050781 15.238281 55.3125-.011719l14.097656-14.109374c3.550781-3.550782 9.332031-3.550782 12.871094-.007813l15.132812 15.082031c15.304688 14.269532 39.363281 13.957032 54.296875-.964844l14.101563-14.109374c3.546875-3.550782 9.328125-3.550782 12.867187-.007813l14.132813 14.128906c15.238281 15.238281 40.039062 15.238281 55.296875-.011719l14.101562-14.109374c3.550782-3.550782 9.328125-3.550782 12.871094-.007813l14.128906 14.128906c15.238282 15.238281 40.039063 15.238281 55.300782-.011719l14.097656-14.109374c3.550781-3.550782 9.332031-3.550782 12.871094-.007813l8.570312 8.574219v-68.347656c0-26.285157-21.335938-47.132813-47.132812-47.132813zm0 0" fill="#eff6fe"/><path d="m512 352.398438v68.351562l-8.570312-8.578125c-3.539063-3.542969-9.320313-3.542969-12.871094.007813l-14.097656 14.109374c-15.261719 15.25-40.0625 15.25-55.300782.011719l-14.128906-14.128906c-3.542969-3.542969-9.320312-3.542969-12.871094.007813l-14.101562 14.109374c-15.257813 15.25-40.058594 15.25-55.296875.011719l-14.132813-14.128906c-3.539062-3.542969-9.320312-3.542969-12.867187.007813l-14.101563 14.109374c-7.648437 7.640626-17.679687 11.449219-27.71875 11.429688v-132.449219h208.929688c25.789062 0 47.128906 20.839844 47.128906 47.128907zm0 0" fill="#d9e4ef"/></svg>